HIERARCHY
ROOT hip
{
  OFFSET 0 90.174 2.4664
  CHANNELS 6 Xposition Yposition Zposition Zrotation Xrotation Yrotation
  JOINT abdomen
  {
    OFFSET 0 -1.186 -1.5018
    CHANNELS 6 Xposition Yposition Zposition Zrotation Xrotation Yrotation
    JOINT abdomen2
    {
      OFFSET 0 9.964 0.2134
      CHANNELS 6 Xposition Yposition Zposition Zrotation Xrotation Yrotation
      JOINT chest
      {
        OFFSET 0 13.134 -3.2573
        CHANNELS 6 Xposition Yposition Zposition Zrotation Xrotation Yrotation
        JOINT neck
        {
          OFFSET 0 20.686 -1.6905
          CHANNELS 6 Xposition Yposition Zposition Zrotation Xrotation Yrotation
          JOINT head
          {
            OFFSET 0 7.238 -0.1237
            CHANNELS 6 Xposition Yposition Zposition Zrotation Xrotation Yrotation
            End Site
            {
              OFFSET 0 0 0
            }
          }
        }
        JOINT lCollar
        {
          OFFSET 1.7069 20.075 5.0056
          CHANNELS 6 Xposition Yposition Zposition Zrotation Xrotation Yrotation
          JOINT lShldr
          {
            OFFSET 13.6458 -0.047 -4.849
            CHANNELS 6 Xposition Yposition Zposition Zrotation Xrotation Yrotation
            JOINT lForeArm
            {
              OFFSET 28.3255 -0.9759 2.2888
              CHANNELS 6 Xposition Yposition Zposition Zrotation Xrotation Yrotation
              JOINT lHand
              {
                OFFSET 22.1583 -0.53 10.8316
                CHANNELS 6 Xposition Yposition Zposition Zrotation Xrotation Yrotation
                JOINT lThumb1
                {
                  OFFSET 0.786 0.112 2.5817
                  CHANNELS 6 Xposition Yposition Zposition Zrotation Xrotation Yrotation
                  JOINT lThumb2
                  {
                    OFFSET 0.3601 -0.878 4.2331
                    CHANNELS 6 Xposition Yposition Zposition Zrotation Xrotation Yrotation
                    JOINT lThumb2_End
                    {
                      OFFSET 1.8127 -1.216 2.2227
                      CHANNELS 6 Xposition Yposition Zposition Zrotation Xrotation Yrotation
                      End Site
                      {
                        OFFSET 0.0181 -0.0122 0.0222
                      }
                    }
                  }
                }
                JOINT lCarpal1
                {
                  OFFSET 0.9571 1.114 1.7695
                  CHANNELS 6 Xposition Yposition Zposition Zrotation Xrotation Yrotation
                  JOINT lIndex1
                  {
                    OFFSET 4.1246 0.487 4.1451
                    CHANNELS 6 Xposition Yposition Zposition Zrotation Xrotation Yrotation
                    JOINT lIndex2
                    {
                      OFFSET 3.4052 -1.454 2.7682
                      CHANNELS 6 Xposition Yposition Zposition Zrotation Xrotation Yrotation
                      JOINT lIndex2_End
                      {
                        OFFSET 1.4531 -1.795 1.2713
                        CHANNELS 6 Xposition Yposition Zposition Zrotation Xrotation Yrotation
                        End Site
                        {
                          OFFSET 0.0145 -0.0179 0.0127
                        }
                      }
                    }
                  }
                  JOINT lMid1
                  {
                    OFFSET 5.6954 0.21 2.1184
                    CHANNELS 6 Xposition Yposition Zposition Zrotation Xrotation Yrotation
                    JOINT lMid2
                    {
                      OFFSET 3.9766 -1.54 2.3863
                      CHANNELS 6 Xposition Yposition Zposition Zrotation Xrotation Yrotation
                      JOINT lMid2_End
                      {
                        OFFSET 1.4042 -1.926 1.125
                        CHANNELS 6 Xposition Yposition Zposition Zrotation Xrotation Yrotation
                        End Site
                        {
                          OFFSET 0.014 -0.0193 0.0113
                        }
                      }
                    }
                  }
                }
                JOINT lCarpal2
                {
                  OFFSET 2.0956 0.66 -0.3894
                  CHANNELS 6 Xposition Yposition Zposition Zrotation Xrotation Yrotation
                  JOINT lRing1
                  {
                    OFFSET 5.0395 -0.09 2.4971
                    CHANNELS 6 Xposition Yposition Zposition Zrotation Xrotation Yrotation
                    JOINT lRing2
                    {
                      OFFSET 3.7921 -1.552 1.4806
                      CHANNELS 6 Xposition Yposition Zposition Zrotation Xrotation Yrotation
                      JOINT lRing2_End
                      {
                        OFFSET 1.4655 -1.808 0.9609
                        CHANNELS 6 Xposition Yposition Zposition Zrotation Xrotation Yrotation
                        End Site
                        {
                          OFFSET 0.0147 -0.0181 0.0096
                        }
                      }
                    }
                  }
                  JOINT lPinky1
                  {
                    OFFSET 4.9141 -1.269 0.3591
                    CHANNELS 6 Xposition Yposition Zposition Zrotation Xrotation Yrotation
                    JOINT lPinky2
                    {
                      OFFSET 3.1477 -1.685 0.8462
                      CHANNELS 6 Xposition Yposition Zposition Zrotation Xrotation Yrotation
                      JOINT lPinky2_End
                      {
                        OFFSET 0.8055 -1.585 0.7955
                        CHANNELS 6 Xposition Yposition Zposition Zrotation Xrotation Yrotation
                        End Site
                        {
                          OFFSET 0.0081 -0.0158 0.008
                        }
                      }
                    }
                  }
                }
              }
            }
          }
        }
        JOINT rCollar
        {
          OFFSET -1.7069 20.075 5.0056
          CHANNELS 6 Xposition Yposition Zposition Zrotation Xrotation Yrotation
          JOINT rShldr
          {
            OFFSET -13.6458 -0.047 -4.849
            CHANNELS 6 Xposition Yposition Zposition Zrotation Xrotation Yrotation
            JOINT rForeArm
            {
              OFFSET -28.3255 -0.9759 2.2888
              CHANNELS 6 Xposition Yposition Zposition Zrotation Xrotation Yrotation
              JOINT rHand
              {
                OFFSET -22.1583 -0.53 10.8316
                CHANNELS 6 Xposition Yposition Zposition Zrotation Xrotation Yrotation
                JOINT rThumb1
                {
                  OFFSET -0.786 0.112 2.5817
                  CHANNELS 6 Xposition Yposition Zposition Zrotation Xrotation Yrotation
                  JOINT rThumb2
                  {
                    OFFSET -0.3601 -0.878 4.2331
                    CHANNELS 6 Xposition Yposition Zposition Zrotation Xrotation Yrotation
                    JOINT rThumb2_End
                    {
                      OFFSET -1.8127 -1.216 2.2227
                      CHANNELS 6 Xposition Yposition Zposition Zrotation Xrotation Yrotation
                      End Site
                      {
                        OFFSET -0.0181 -0.0122 0.0222
                      }
                    }
                  }
                }
                JOINT rCarpal1
                {
                  OFFSET -0.9571 1.114 1.7695
                  CHANNELS 6 Xposition Yposition Zposition Zrotation Xrotation Yrotation
                  JOINT rIndex1
                  {
                    OFFSET -4.1246 0.487 4.1451
                    CHANNELS 6 Xposition Yposition Zposition Zrotation Xrotation Yrotation
                    JOINT rIndex2
                    {
                      OFFSET -3.4052 -1.454 2.7682
                      CHANNELS 6 Xposition Yposition Zposition Zrotation Xrotation Yrotation
                      JOINT rIndex2_End
                      {
                        OFFSET -1.4531 -1.795 1.2713
                        CHANNELS 6 Xposition Yposition Zposition Zrotation Xrotation Yrotation
                        End Site
                        {
                          OFFSET -0.0145 -0.018 0.0127
                        }
                      }
                    }
                  }
                  JOINT rMid1
                  {
                    OFFSET -5.6954 0.21 2.1184
                    CHANNELS 6 Xposition Yposition Zposition Zrotation Xrotation Yrotation
                    JOINT rMid2
                    {
                      OFFSET -3.9766 -1.54 2.3863
                      CHANNELS 6 Xposition Yposition Zposition Zrotation Xrotation Yrotation
                      JOINT rMid2_End
                      {
                        OFFSET -1.4042 -1.926 1.125
                        CHANNELS 6 Xposition Yposition Zposition Zrotation Xrotation Yrotation
                        End Site
                        {
                          OFFSET -0.014 -0.0193 0.0113
                        }
                      }
                    }
                  }
                }
                JOINT rCarpal2
                {
                  OFFSET -2.0956 0.66 -0.3894
                  CHANNELS 6 Xposition Yposition Zposition Zrotation Xrotation Yrotation
                  JOINT rRing1
                  {
                    OFFSET -5.0395 -0.09 2.4971
                    CHANNELS 6 Xposition Yposition Zposition Zrotation Xrotation Yrotation
                    JOINT rRing2
                    {
                      OFFSET -3.7921 -1.552 1.4806
                      CHANNELS 6 Xposition Yposition Zposition Zrotation Xrotation Yrotation
                      JOINT rRing2_End
                      {
                        OFFSET -1.4655 -1.808 0.9609
                        CHANNELS 6 Xposition Yposition Zposition Zrotation Xrotation Yrotation
                        End Site
                        {
                          OFFSET -0.0147 -0.0181 0.0096
                        }
                      }
                    }
                  }
                  JOINT rPinky1
                  {
                    OFFSET -4.9141 -1.269 0.3592
                    CHANNELS 6 Xposition Yposition Zposition Zrotation Xrotation Yrotation
                    JOINT rPinky2
                    {
                      OFFSET -3.1477 -1.685 0.8462
                      CHANNELS 6 Xposition Yposition Zposition Zrotation Xrotation Yrotation
                      JOINT rPinky2_End
                      {
                        OFFSET -0.8055 -1.585 0.7955
                        CHANNELS 6 Xposition Yposition Zposition Zrotation Xrotation Yrotation
                        End Site
                        {
                          OFFSET -0.0081 -0.0158 0.008
                        }
                      }
                    }
                  }
                }
              }
            }
          }
        }
      }
    }
  }
  JOINT lThigh
  {
    OFFSET 8.367 -8.2066 0.5982
    CHANNELS 6 Xposition Yposition Zposition Zrotation Xrotation Yrotation
    JOINT lShin
    {
      OFFSET 2.1923 -43.463 -0.4932
      CHANNELS 6 Xposition Yposition Zposition Zrotation Xrotation Yrotation
      JOINT lFoot
      {
        OFFSET 0.7333 -45.8593 -2.6451
        CHANNELS 6 Xposition Yposition Zposition Zrotation Xrotation Yrotation
        End Site
        {
          OFFSET 2.6618 -4.2699 12.3931
        }
      }
    }
  }
  JOINT rThigh
  {
    OFFSET -8.367 -8.2066 0.5982
    CHANNELS 6 Xposition Yposition Zposition Zrotation Xrotation Yrotation
    JOINT rShin
    {
      OFFSET -2.1923 -43.463 -0.4931
      CHANNELS 6 Xposition Yposition Zposition Zrotation Xrotation Yrotation
      JOINT rFoot
      {
        OFFSET -0.7333 -45.8593 -2.6451
        CHANNELS 6 Xposition Yposition Zposition Zrotation Xrotation Yrotation
        End Site
        {
          OFFSET -2.6618 -4.2699 12.3931
        }
      }
    }
  }
}
MOTION
Frames:	4
Frame Time:	0.0333333
-8.24954 37.3907 -10.6878 -0 -11.3099 -0 0 -1.186 -1.5018 -0.0551623 4.06794 3.07697 8.88178e-016 9.964 0.2134 -0.331051 8.12699 6.1813 -8.88178e-016 13.134 -3.2573 -0.331051 8.12699 6.1813 1.77636e-015 20.686 -1.6905 -12.7901 -20.0796 -4.45851 0 7.238 -0.1237 -13.3218 -25.9018 7.14592 1.7069 20.075 5.0056 27.5763 10.9882 -77.2433 13.6458 -0.047 -4.849 -33.7057 -16.1155 -5.24631 28.3255 -0.9759 2.2888 -58.3221 -21.3561 -72.0886 22.1583 -0.53 10.8316 -6.27789 46.1691 -5.45994 0.786 0.112 2.5817 1.14458e-006 1.70863e-006 -9.11322e-007 0.3601 -0.878 4.2331 1.07623e-006 -2.97429e-006 -6.25413e-007 1.8127 -1.216 2.2227 5.10061e-007 2.07025e-006 -4.72254e-007 0.9571 1.114 1.7695 -3.18055e-015 -5.56597e-015 -6.36111e-015 4.1246 0.487 4.1451 1.14458e-006 1.70863e-006 -9.11321e-007 3.4052 -1.454 2.7682 1.07623e-006 -2.97429e-006 -6.25413e-007 1.4531 -1.795 1.2713 5.10061e-007 2.07025e-006 -4.72254e-007 5.6954 0.21 2.1184 1.14458e-006 1.70863e-006 -9.11321e-007 3.9766 -1.54 2.3863 1.07623e-006 -2.97429e-006 -6.25413e-007 1.4042 -1.926 1.125 5.10061e-007 2.07025e-006 -4.72254e-007 2.0956 0.66 -0.3894 -3.18055e-015 -5.56597e-015 -6.36111e-015 5.0395 -0.09 2.4971 1.14458e-006 1.70863e-006 -9.11321e-007 3.7921 -1.552 1.4806 1.07623e-006 -2.97429e-006 -6.25413e-007 1.4655 -1.808 0.9609 5.10061e-007 2.07025e-006 -4.72254e-007 4.9141 -1.269 0.3591 1.14458e-006 1.70863e-006 -9.11321e-007 3.1477 -1.685 0.8462 1.07623e-006 -2.97429e-006 -6.25413e-007 0.8055 -1.585 0.7955 5.10061e-007 2.07025e-006 -4.72254e-007 -1.7069 20.075 5.0056 6.82842 -16.02 14.7243 -13.6458 -0.047 -4.849 65.6909 2.05818 13.7819 -28.3255 -0.9759 2.2888 -16.0227 -7.67219 17.4503 -22.1583 -0.53 10.8316 56.7988 34.524 -18.7107 -0.786 0.112 2.5817 1.59028e-015 3.18055e-015 -3.97569e-016 -0.3601 -0.878 4.2331 2.97939e-031 4.77083e-015 -3.57812e-015 -1.8127 -1.216 2.2227 1.59028e-015 1.59028e-015 -3.97569e-016 -0.9571 1.114 1.7695 1.59028e-015 3.18055e-015 -3.57812e-015 -4.1246 0.487 4.1451 -3.18055e-015 1.59028e-015 6.75868e-015 -3.4052 -1.454 2.7682 4.77083e-015 0 -0 -1.4531 -1.795 1.2713 1.59028e-015 0 2.78299e-015 -5.6954 0.21 2.1184 -3.18055e-015 1.59028e-015 6.75868e-015 -3.9766 -1.54 2.3863 4.77083e-015 0 -0 -1.4042 -1.926 1.125 1.59028e-015 0 2.78299e-015 -2.0956 0.66 -0.3894 1.59028e-015 3.18055e-015 -3.57812e-015 -5.0395 -0.09 2.4971 -3.18055e-015 1.59028e-015 6.75868e-015 -3.7921 -1.552 1.4806 4.77083e-015 0 -0 -1.4655 -1.808 0.9609 1.59028e-015 0 2.78299e-015 -4.9141 -1.269 0.3592 -3.18055e-015 1.59028e-015 6.75868e-015 -3.1477 -1.685 0.8462 4.77083e-015 0 -0 -0.8055 -1.585 0.7955 1.59028e-015 0 2.78299e-015 8.367 -8.2066 0.5982 23.5988 -6.74848 -24.8615 2.1923 -43.463 -0.4932 -159.274 81.3261 175.391 0.7333 -45.8593 -2.6451 24.8258 55.5438 -48.5081 -8.367 -8.2066 0.5982 -85.6463 -36.7857 -104.403 -2.1923 -43.463 -0.4931 -159.47 55.3383 147.559 -0.7333 -45.8593 -2.6451 8.76679 -28.3791 17.1156 
-8.24074 37.6236 -10.6981 -0 -10.1184 -0 0 -1.186 -1.5018 -0.100339 3.70302 3.08318 1.77636e-015 9.964 0.2134 -0.401861 7.39519 6.19231 8.88178e-016 13.134 -3.2573 -0.401862 7.39519 6.19231 0 20.686 -1.6905 -12.7746 -19.888 -4.41233 0 7.238 -0.1237 -13.353 -25.7276 7.06051 1.7069 20.075 5.0056 27.8488 11.9913 -77.6574 13.6458 -0.047 -4.849 -33.8232 -16.0723 -5.26386 28.3255 -0.9759 2.2888 -58.3221 -21.3561 -72.0886 22.1583 -0.53 10.8316 -5.73596 46.5952 -5.92741 0.786 0.112 2.5817 -3.17076e-007 1.81076e-007 2.1959e-007 0.3601 -0.878 4.2331 -9.54166e-015 7.95139e-015 -5.56597e-015 1.8127 -1.216 2.2227 -6.36111e-015 8.74653e-015 -7.95139e-016 0.9571 1.114 1.7695 -6.36111e-015 0 2.38542e-015 4.1246 0.487 4.1451 -3.17076e-007 1.81076e-007 2.1959e-007 3.4052 -1.454 2.7682 -3.18055e-015 8.74653e-015 5.56597e-015 1.4531 -1.795 1.2713 3.18055e-015 7.95139e-015 -0 5.6954 0.21 2.1184 -3.17076e-007 1.81076e-007 2.1959e-007 3.9766 -1.54 2.3863 -3.18055e-015 8.74653e-015 5.56597e-015 1.4042 -1.926 1.125 3.18055e-015 7.95139e-015 -0 2.0956 0.66 -0.3894 -6.36111e-015 0 2.38542e-015 5.0395 -0.09 2.4971 -3.17076e-007 1.81076e-007 2.1959e-007 3.7921 -1.552 1.4806 -3.18055e-015 8.74653e-015 5.56597e-015 1.4655 -1.808 0.9609 3.18055e-015 7.95139e-015 -0 4.9141 -1.269 0.3591 -3.17076e-007 1.81076e-007 2.1959e-007 3.1477 -1.685 0.8462 -3.18055e-015 8.74653e-015 5.56597e-015 0.8055 -1.585 0.7955 3.18055e-015 7.95139e-015 -0 -1.7069 20.075 5.0056 7.29591 -14.8741 14.6517 -13.6458 -0.047 -4.849 65.6909 2.05818 13.7819 -28.3255 -0.9759 2.2888 -16.0227 -7.67219 17.4503 -22.1583 -0.53 10.8316 56.2851 34.9927 -18.3091 -0.786 0.112 2.5817 -3.18055e-015 4.77083e-015 -1.98785e-015 -0.3601 -0.878 4.2331 1.99515e-006 1.70569e-006 -1.93333e-006 -1.8127 -1.216 2.2227 -1.59028e-015 3.18055e-015 -1.74931e-014 -0.9571 1.114 1.7695 -1.59028e-015 4.77083e-015 -2.38542e-015 -4.1246 0.487 4.1451 -4.77083e-015 4.77083e-015 1.19271e-015 -3.4052 -1.454 2.7682 1.99515e-006 1.70569e-006 -1.93333e-006 -1.4531 -1.795 1.2713 -1.59028e-015 4.77083e-015 -1.74931e-014 -5.6954 0.21 2.1184 -4.77083e-015 4.77083e-015 1.19271e-015 -3.9766 -1.54 2.3863 1.99515e-006 1.70569e-006 -1.93333e-006 -1.4042 -1.926 1.125 -1.59028e-015 4.77083e-015 -1.74931e-014 -2.0956 0.66 -0.3894 -1.59028e-015 4.77083e-015 -2.38542e-015 -5.0395 -0.09 2.4971 -4.77083e-015 4.77083e-015 1.19271e-015 -3.7921 -1.552 1.4806 1.99515e-006 1.70569e-006 -1.93333e-006 -1.4655 -1.808 0.9609 -1.59028e-015 4.77083e-015 -1.74931e-014 -4.9141 -1.269 0.3592 -4.77083e-015 4.77083e-015 1.19271e-015 -3.1477 -1.685 0.8462 1.99515e-006 1.70569e-006 -1.93333e-006 -0.8055 -1.585 0.7955 -1.59028e-015 4.77083e-015 -1.74931e-014 8.367 -8.2066 0.5982 22.9751 -7.82708 -24.8546 2.1923 -43.463 -0.4932 -159.3 81.3188 175.436 0.7333 -45.8593 -2.6451 23.9702 56.1 -47.9431 -8.367 -8.2066 0.5982 -86.2586 -37.3183 -105.574 -2.1923 -43.463 -0.4931 -159.334 55.6928 147.448 -0.7333 -45.8593 -2.6451 8.86892 -28.2558 16.7744 
-8.23118 37.8541 -10.7084 -0 -8.92737 -0 0 -1.186 -1.5018 -0.145305 3.3384 3.0886 -8.88178e-016 9.964 0.2134 -0.472136 6.66412 6.20146 0 13.134 -3.2573 -0.472137 6.66412 6.20146 2.66454e-015 20.686 -1.6905 -12.7586 -19.6956 -4.36591 3.55271e-015 7.238 -0.1237 -13.3839 -25.5534 6.97529 1.7069 20.075 5.0056 28.1297 12.9921 -78.0778 13.6458 -0.047 -4.849 -33.9405 -16.0291 -5.28133 28.3255 -0.9759 2.2888 -58.3221 -21.3561 -72.0886 22.1583 -0.53 10.8316 -5.18478 47.018 -6.40438 0.786 0.112 2.5817 -9.50676e-007 5.44019e-007 6.58947e-007 0.3601 -0.878 4.2331 -2.36731e-007 -1.24842e-006 2.62955e-006 1.8127 -1.216 2.2227 -9.29842e-007 5.6695e-006 -4.43274e-006 0.9571 1.114 1.7695 -1.32417e-031 -1.59028e-015 -4.77083e-015 4.1246 0.487 4.1451 -9.50676e-007 5.44019e-007 6.58947e-007 3.4052 -1.454 2.7682 -2.36731e-007 -1.24842e-006 2.62955e-006 1.4531 -1.795 1.2713 -9.29842e-007 5.6695e-006 -4.43274e-006 5.6954 0.21 2.1184 -9.50676e-007 5.44019e-007 6.58947e-007 3.9766 -1.54 2.3863 -2.36731e-007 -1.24842e-006 2.62955e-006 1.4042 -1.926 1.125 -9.29842e-007 5.6695e-006 -4.43274e-006 2.0956 0.66 -0.3894 -1.32417e-031 -1.59028e-015 -4.77083e-015 5.0395 -0.09 2.4971 -9.50676e-007 5.44019e-007 6.58947e-007 3.7921 -1.552 1.4806 -2.36731e-007 -1.24842e-006 2.62955e-006 1.4655 -1.808 0.9609 -9.29842e-007 5.6695e-006 -4.43274e-006 4.9141 -1.269 0.3591 -9.50676e-007 5.44019e-007 6.58947e-007 3.1477 -1.685 0.8462 -2.36731e-007 -1.24842e-006 2.62955e-006 0.8055 -1.585 0.7955 -9.29842e-007 5.6695e-006 -4.43274e-006 -1.7069 20.075 5.0056 7.7623 -13.7294 14.5699 -13.6458 -0.047 -4.849 65.6909 2.05818 13.7819 -28.3255 -0.9759 2.2888 -16.0227 -7.67218 17.4503 -22.1583 -0.53 10.8316 55.7645 35.4582 -17.9 -0.786 0.112 2.5817 3.18055e-015 -1.59028e-015 -2.78299e-015 -0.3601 -0.878 4.2331 -5.46831e-006 1.61062e-006 3.82948e-006 -1.8127 -1.216 2.2227 5.46831e-006 -1.61062e-006 -3.82948e-006 -0.9571 1.114 1.7695 3.18055e-015 1.59028e-015 -5.96354e-015 -4.1246 0.487 4.1451 3.18055e-015 0 -2.38542e-015 -3.4052 -1.454 2.7682 -5.46831e-006 1.61062e-006 3.82948e-006 -1.4531 -1.795 1.2713 5.46831e-006 -1.61062e-006 -3.82948e-006 -5.6954 0.21 2.1184 3.18055e-015 0 -2.38542e-015 -3.9766 -1.54 2.3863 -5.46831e-006 1.61062e-006 3.82948e-006 -1.4042 -1.926 1.125 5.46831e-006 -1.61062e-006 -3.82948e-006 -2.0956 0.66 -0.3894 3.18055e-015 1.59028e-015 -5.96354e-015 -5.0395 -0.09 2.4971 3.18055e-015 0 -2.38542e-015 -3.7921 -1.552 1.4806 -5.46831e-006 1.61062e-006 3.82948e-006 -1.4655 -1.808 0.9609 5.46831e-006 -1.61062e-006 -3.82948e-006 -4.9141 -1.269 0.3592 3.18055e-015 0 -2.38542e-015 -3.1477 -1.685 0.8462 -5.46831e-006 1.61062e-006 3.82948e-006 -0.8055 -1.585 0.7955 5.46831e-006 -1.61062e-006 -3.82948e-006 8.367 -8.2066 0.5982 22.3514 -8.9054 -24.8599 2.1923 -43.463 -0.4932 -159.325 81.3116 175.48 0.7333 -45.8593 -2.6451 23.0922 56.6513 -47.3553 -8.367 -8.2066 0.5982 -86.8911 -37.8394 -106.758 -2.1923 -43.463 -0.4931 -159.196 56.0477 147.336 -0.7333 -45.8593 -2.6451 8.97336 -28.1307 16.4339 
-8.22092 38.0823 -10.7187 -0 -7.73714 -0 0 -1.186 -1.5018 -0.190051 2.97439 3.09319 -8.88178e-016 9.964 0.2134 -0.541883 5.93413 6.20877 -1.77636e-015 13.134 -3.2573 -0.541883 5.93413 6.20878 8.88178e-016 20.686 -1.6905 -12.7432 -19.5036 -4.31982 0 7.238 -0.1237 -13.4146 -25.379 6.89029 1.7069 20.075 5.0056 28.4192 13.9903 -78.5048 13.6458 -0.047 -4.849 -34.0579 -15.9858 -5.29868 28.3255 -0.9759 2.2888 -58.3221 -21.356 -72.0887 22.1583 -0.53 10.8316 -4.62408 47.4376 -6.89109 0.786 0.112 2.5817 6.33413e-007 -3.63199e-007 -4.39425e-007 0.3601 -0.878 4.2331 -3.92788e-007 1.60509e-006 -2.18475e-006 1.8127 -1.216 2.2227 3.18055e-015 1.59028e-015 -6.75868e-015 0.9571 1.114 1.7695 -3.18055e-015 -7.95139e-015 -1.03368e-014 4.1246 0.487 4.1451 6.33413e-007 -3.63199e-007 -4.39425e-007 3.4052 -1.454 2.7682 -3.92788e-007 1.60509e-006 -2.18475e-006 1.4531 -1.795 1.2713 3.18055e-015 1.19271e-014 -1.59028e-015 5.6954 0.21 2.1184 6.33413e-007 -3.63199e-007 -4.39425e-007 3.9766 -1.54 2.3863 -3.92788e-007 1.60509e-006 -2.18475e-006 1.4042 -1.926 1.125 3.18055e-015 1.19271e-014 -1.59028e-015 2.0956 0.66 -0.3894 -3.18055e-015 -7.95139e-015 -1.03368e-014 5.0395 -0.09 2.4971 6.33413e-007 -3.63199e-007 -4.39425e-007 3.7921 -1.552 1.4806 -3.92788e-007 1.60509e-006 -2.18475e-006 1.4655 -1.808 0.9609 3.18055e-015 1.19271e-014 -1.59028e-015 4.9141 -1.269 0.3591 6.33413e-007 -3.63199e-007 -4.39425e-007 3.1477 -1.685 0.8462 -3.92788e-007 1.60509e-006 -2.18475e-006 0.8055 -1.585 0.7955 3.18055e-015 1.19271e-014 -1.59028e-015 -1.7069 20.075 5.0056 8.22786 -12.5861 14.479 -13.6458 -0.047 -4.849 65.6909 2.05817 13.7819 -28.3255 -0.9759 2.2888 -16.0227 -7.67218 17.4503 -22.1583 -0.53 10.8316 55.2369 35.9206 -17.4835 -0.786 0.112 2.5817 -4.77083e-015 0 7.95139e-015 -0.3601 -0.878 4.2331 2.00203e-006 1.69833e-006 -1.93259e-006 -1.8127 -1.216 2.2227 2.00203e-006 1.69833e-006 -1.93259e-006 -0.9571 1.114 1.7695 -3.18055e-015 -1.59028e-015 4.77083e-015 -4.1246 0.487 4.1451 -1.59028e-015 -1.59028e-015 7.95139e-015 -3.4052 -1.454 2.7682 2.00203e-006 1.69833e-006 -1.93259e-006 -1.4531 -1.795 1.2713 2.00203e-006 1.69833e-006 -1.93259e-006 -5.6954 0.21 2.1184 -1.59028e-015 -1.59028e-015 7.95139e-015 -3.9766 -1.54 2.3863 2.00203e-006 1.69833e-006 -1.93259e-006 -1.4042 -1.926 1.125 2.00203e-006 1.69833e-006 -1.93259e-006 -2.0956 0.66 -0.3894 -3.18055e-015 -1.59028e-015 4.77083e-015 -5.0395 -0.09 2.4971 -1.59028e-015 -1.59028e-015 7.95139e-015 -3.7921 -1.552 1.4806 2.00203e-006 1.69833e-006 -1.93259e-006 -1.4655 -1.808 0.9609 2.00203e-006 1.69833e-006 -1.93259e-006 -4.9141 -1.269 0.3592 -1.59028e-015 -1.59028e-015 7.95139e-015 -3.1477 -1.685 0.8462 2.00203e-006 1.69833e-006 -1.93259e-006 -0.8055 -1.585 0.7955 2.00203e-006 1.69833e-006 -1.93259e-006 8.367 -8.2066 0.5982 21.7276 -9.98308 -24.8773 2.1923 -43.463 -0.4932 -159.351 81.3043 175.524 0.7333 -45.8593 -2.6451 22.1911 57.1976 -46.7439 -8.367 -8.2066 0.5982 -87.5439 -38.3482 -107.957 -2.1923 -43.463 -0.4931 -159.055 56.4026 147.222 -0.7333 -45.8593 -2.6451 9.08014 -28.0041 16.0943 
